<?xml version="1.0" encoding="iso-8859-1"?>
<!-- Generator: Adobe Illustrator 19.0.0, SVG Export Plug-In . SVG Version: 6.00 Build 0)  -->
<svg version="1.1" id="Capa_1" xmlns="http://www.w3.org/2000/svg" xmlns:xlink="http://www.w3.org/1999/xlink" x="0px" y="0px"
	 viewBox="0 0 512 512" style="enable-background:new 0 0 512 512;" xml:space="preserve">
<g>
	<g>
		<g>
			<path d="M8.533,449.835c4.71,0,8.533-3.814,8.533-8.533v-17.067c0-4.719-3.823-8.533-8.533-8.533S0,419.516,0,424.235v17.067
				C0,446.02,3.823,449.835,8.533,449.835z"/>
			<path d="M19.038,472.277c-1.579-4.446-6.46-6.75-10.897-5.18c-4.437,1.579-6.758,6.46-5.171,10.897
				c2.304,6.485,5.845,12.348,10.513,17.434c1.681,1.835,3.977,2.756,6.289,2.756c2.065,0,4.13-0.742,5.76-2.253
				c3.473-3.191,3.703-8.584,0.512-12.058C22.938,480.486,20.574,476.587,19.038,472.277z"/>
			<path d="M67.046,494.933l-16.887-0.017c-0.06,0-0.119,0-0.179,0c-4.634,0-8.439,3.703-8.533,8.354
				c-0.102,4.71,3.644,8.61,8.354,8.713L67.046,512c4.719,0,8.533-3.814,8.533-8.533C75.58,498.748,71.757,494.933,67.046,494.933z"
				/>
			<path d="M17.673,12.501c-5.214,4.514-9.387,9.924-12.425,16.085c-2.082,4.233-0.35,9.353,3.883,11.435
				c1.212,0.597,2.5,0.879,3.763,0.879c3.149,0,6.178-1.749,7.663-4.762c2.022-4.113,4.813-7.731,8.286-10.735
				c3.567-3.098,3.951-8.482,0.862-12.041C26.615,9.813,21.231,9.412,17.673,12.501z"/>
			<path d="M71.927,0H54.861c-4.71,0-8.533,3.814-8.533,8.533s3.823,8.533,8.533,8.533h17.067c4.71,0,8.533-3.814,8.533-8.533
				S76.638,0,71.927,0z"/>
			<path d="M123.128,0h-17.067c-4.71,0-8.533,3.814-8.533,8.533s3.823,8.533,8.533,8.533h17.067c4.71,0,8.533-3.814,8.533-8.533
				S127.838,0,123.128,0z"/>
			<path d="M118.246,494.933H101.18c-4.71,0-8.533,3.814-8.533,8.533c0,4.719,3.823,8.533,8.533,8.533h17.067
				c4.719,0,8.533-3.814,8.533-8.533C126.78,498.748,122.957,494.933,118.246,494.933z"/>
			<path d="M8.533,296.235c4.71,0,8.533-3.814,8.533-8.533v-17.067c0-4.719-3.823-8.533-8.533-8.533S0,265.916,0,270.635v17.067
				C0,292.42,3.823,296.235,8.533,296.235z"/>
			<path d="M8.533,398.635c4.71,0,8.533-3.814,8.533-8.533v-17.067c0-4.719-3.823-8.533-8.533-8.533S0,368.316,0,373.035v17.067
				C0,394.82,3.823,398.635,8.533,398.635z"/>
			<path d="M8.533,193.835c4.71,0,8.533-3.814,8.533-8.533v-17.067c0-4.719-3.823-8.533-8.533-8.533S0,163.516,0,168.235v17.067
				C0,190.02,3.823,193.835,8.533,193.835z"/>
			<path d="M8.533,91.435c4.71,0,8.533-3.814,8.533-8.533V65.835c0-4.719-3.823-8.533-8.533-8.533S0,61.116,0,65.835v17.067
				C0,87.62,3.823,91.435,8.533,91.435z"/>
			<path d="M8.533,142.635c4.71,0,8.533-3.814,8.533-8.533v-17.067c0-4.719-3.823-8.533-8.533-8.533S0,112.316,0,117.035v17.067
				C0,138.82,3.823,142.635,8.533,142.635z"/>
			<path d="M8.533,347.435c4.71,0,8.533-3.814,8.533-8.533v-17.067c0-4.719-3.823-8.533-8.533-8.533S0,317.116,0,321.835v17.067
				C0,343.62,3.823,347.435,8.533,347.435z"/>
			<path d="M169.446,494.933H152.38c-4.71,0-8.533,3.814-8.533,8.533c0,4.719,3.823,8.533,8.533,8.533h17.067
				c4.719,0,8.533-3.814,8.533-8.533C177.98,498.748,174.157,494.933,169.446,494.933z"/>
			<path d="M8.533,245.035c4.71,0,8.533-3.814,8.533-8.533v-17.067c0-4.719-3.823-8.533-8.533-8.533S0,214.716,0,219.435v17.067
				C0,241.22,3.823,245.035,8.533,245.035z"/>
			<path d="M473.19,492.621c-3.942,1.527-8.115,2.304-12.39,2.313h-1.22c-4.71,0-8.533,3.814-8.533,8.533
				c0,4.719,3.823,8.533,8.533,8.533h1.229c6.409-0.008,12.655-1.186,18.56-3.482c4.395-1.707,6.571-6.656,4.864-11.042
				C482.526,493.09,477.577,490.88,473.19,492.621z"/>
			<path d="M503.467,337.673c-4.71,0-8.533,3.814-8.533,8.533v17.067c0,4.719,3.823,8.533,8.533,8.533s8.533-3.814,8.533-8.533
				v-17.067C512,341.487,508.177,337.673,503.467,337.673z"/>
			<path d="M503.467,388.873c-4.71,0-8.533,3.814-8.533,8.533v17.067c0,4.719,3.823,8.533,8.533,8.533s8.533-3.814,8.533-8.533
				v-17.067C512,392.687,508.177,388.873,503.467,388.873z"/>
			<path d="M503.467,440.073c-4.71,0-8.533,3.814-8.533,8.533V460.8c0,4.617-0.896,9.079-2.679,13.278
				c-1.843,4.344,0.188,9.353,4.531,11.187c1.084,0.461,2.21,0.674,3.319,0.674c3.328,0,6.494-1.946,7.868-5.205
				c2.671-6.315,4.028-13.022,4.028-19.934v-12.194C512,443.887,508.177,440.073,503.467,440.073z"/>
			<path d="M503.467,235.273c-4.71,0-8.533,3.814-8.533,8.533v17.067c0,4.719,3.823,8.533,8.533,8.533s8.533-3.814,8.533-8.533
				v-17.067C512,239.087,508.177,235.273,503.467,235.273z"/>
			<path d="M503.467,286.473c-4.71,0-8.533,3.814-8.533,8.533v17.067c0,4.719,3.823,8.533,8.533,8.533s8.533-3.814,8.533-8.533
				v-17.067C512,290.287,508.177,286.473,503.467,286.473z"/>
			<path d="M174.327,0h-17.067c-4.71,0-8.533,3.814-8.533,8.533s3.823,8.533,8.533,8.533h17.067c4.71,0,8.533-3.814,8.533-8.533
				S179.038,0,174.327,0z"/>
			<path d="M425.446,494.933H408.38c-4.71,0-8.533,3.814-8.533,8.533c0,4.719,3.823,8.533,8.533,8.533h17.067
				c4.719,0,8.533-3.814,8.533-8.533C433.98,498.748,430.157,494.933,425.446,494.933z"/>
			<path d="M503.467,184.073c-4.71,0-8.533,3.814-8.533,8.533v17.067c0,4.719,3.823,8.533,8.533,8.533s8.533-3.814,8.533-8.533
				v-17.067C512,187.887,508.177,184.073,503.467,184.073z"/>
			<path d="M374.246,494.933H357.18c-4.71,0-8.533,3.814-8.533,8.533c0,4.719,3.823,8.533,8.533,8.533h17.067
				c4.719,0,8.533-3.814,8.533-8.533C382.78,498.748,378.957,494.933,374.246,494.933z"/>
			<path d="M220.646,494.933H203.58c-4.71,0-8.533,3.814-8.533,8.533c0,4.719,3.823,8.533,8.533,8.533h17.067
				c4.719,0,8.533-3.814,8.533-8.533C229.18,498.748,225.357,494.933,220.646,494.933z"/>
			<path d="M271.846,494.933H254.78c-4.71,0-8.533,3.814-8.533,8.533c0,4.719,3.823,8.533,8.533,8.533h17.067
				c4.719,0,8.533-3.814,8.533-8.533C280.38,498.748,276.557,494.933,271.846,494.933z"/>
			<path d="M225.527,0h-17.067c-4.71,0-8.533,3.814-8.533,8.533s3.823,8.533,8.533,8.533h17.067c4.71,0,8.533-3.814,8.533-8.533
				S230.238,0,225.527,0z"/>
			<path d="M276.727,0h-17.067c-4.71,0-8.533,3.814-8.533,8.533s3.823,8.533,8.533,8.533h17.067c4.71,0,8.533-3.814,8.533-8.533
				S281.438,0,276.727,0z"/>
			<path d="M327.927,0h-17.067c-4.71,0-8.533,3.814-8.533,8.533s3.823,8.533,8.533,8.533h17.067c4.71,0,8.533-3.814,8.533-8.533
				S332.638,0,327.927,0z"/>
			<path d="M323.046,494.933H305.98c-4.71,0-8.533,3.814-8.533,8.533c0,4.719,3.823,8.533,8.533,8.533h17.067
				c4.719,0,8.533-3.814,8.533-8.533C331.58,498.748,327.757,494.933,323.046,494.933z"/>
		</g>
	</g>
</g>
<g>
	<g>
		<path d="M287.633,224.367c-3.337-3.337-8.73-3.337-12.066,0L87.834,412.1c-3.337,3.337-3.337,8.73,0,12.066
			c1.664,1.664,3.849,2.5,6.033,2.5c2.185,0,4.369-0.836,6.033-2.5l187.733-187.733C290.97,233.097,290.97,227.703,287.633,224.367z
			"/>
	</g>
</g>
<g>
	<g>
		<path d="M281.6,221.867H179.2c-4.71,0-8.533,3.814-8.533,8.533s3.823,8.533,8.533,8.533h93.867V332.8
			c0,4.719,3.823,8.533,8.533,8.533s8.533-3.814,8.533-8.533V230.4C290.133,225.681,286.31,221.867,281.6,221.867z"/>
	</g>
</g>
<g>
	<g>
		<path d="M460.8,0h-128c-4.71,0-8.533,3.814-8.533,8.533v128c0,28.237,22.963,51.2,51.2,51.2h128c4.71,0,8.533-3.814,8.533-8.533
			v-128C512,22.963,489.037,0,460.8,0z M494.933,170.667H375.467c-18.825,0-34.133-15.309-34.133-34.133V17.067H460.8
			c18.825,0,34.133,15.309,34.133,34.133V170.667z"/>
	</g>
</g>
<g>
</g>
<g>
</g>
<g>
</g>
<g>
</g>
<g>
</g>
<g>
</g>
<g>
</g>
<g>
</g>
<g>
</g>
<g>
</g>
<g>
</g>
<g>
</g>
<g>
</g>
<g>
</g>
<g>
</g>
</svg>
